<svg width="178" height="49" viewBox="0 0 178 49" fill="none" xmlns="http://www.w3.org/2000/svg">
<path d="M16.2498 25.0926C16.473 25.5742 16.8167 25.99 17.2475 26.3C18.97 27.4586 21.2645 26.482 22.1924 24.8066C23.5558 22.348 22.1566 19.3336 19.7143 18.1766C16.4643 16.6329 12.6114 18.4269 11.1993 21.5664C9.41989 25.5184 11.6705 30.0944 15.603 31.7161C20.3659 33.6791 25.8129 31.0369 27.6898 26.4268C29.8998 20.9944 26.7846 14.834 21.3588 12.7605C15.0944 10.3653 8.03377 13.8655 5.70027 19.9463C3.05152 26.8574 7.03764 34.6102 13.9585 37.1322C21.7228 39.9597 30.4003 35.6031 33.1871 28.0485C33.732 26.5818 34.0482 25.0401 34.1248 23.4774" stroke="url(#paint0_linear_26_402)" stroke-width="2" stroke-linecap="round" stroke-linejoin="round"/>
<path d="M65.18 11C65.7533 11 66.24 10.9533 66.64 10.86C67.04 10.7533 67.4 10.6533 67.72 10.56C68.0533 10.4533 68.3733 10.4 68.68 10.4C69.2133 10.4 69.6133 10.54 69.88 10.82C70.16 11.0867 70.3933 11.5533 70.58 12.22L72.38 18.66C72.4867 19.0333 72.4333 19.3467 72.22 19.6C72.0067 19.84 71.7133 19.9867 71.34 20.04C71.0467 20.0933 70.7467 20.0667 70.44 19.96C70.1467 19.84 69.9 19.5867 69.7 19.2C68.8733 17.6533 68.08 16.4733 67.32 15.66C66.5733 14.8333 65.82 14.2667 65.06 13.96C64.3 13.64 63.4667 13.48 62.56 13.48H60.6V35.1C60.6 35.4067 60.6733 35.6667 60.82 35.88C60.98 36.0933 61.24 36.2333 61.6 36.3L62.96 36.54C63.3333 36.62 63.6 36.76 63.76 36.96C63.92 37.16 64 37.4533 64 37.84C64 38.1867 63.88 38.4667 63.64 38.68C63.4 38.8933 63.0333 39 62.54 39H50.18C49.6733 39 49.3 38.8933 49.06 38.68C48.82 38.4667 48.7 38.1867 48.7 37.84C48.7 37.2133 49.0067 36.7867 49.62 36.56L50.44 36.3C50.7733 36.18 51.02 36.0267 51.18 35.84C51.3533 35.6533 51.44 35.4067 51.44 35.1V14.9C51.44 14.5933 51.3533 14.3467 51.18 14.16C51.02 13.9733 50.7733 13.82 50.44 13.7L49.62 13.44C49.0067 13.2133 48.7 12.7867 48.7 12.16C48.7 11.8 48.82 11.52 49.06 11.32C49.3 11.1067 49.6733 11 50.18 11H65.18ZM57.5 24.26H62.62C63.5533 24.26 64.2267 24.0733 64.64 23.7C65.0667 23.3267 65.44 22.5933 65.76 21.5C65.88 21.1533 66.04 20.9133 66.24 20.78C66.4533 20.6333 66.6933 20.56 66.96 20.56C67.6267 20.56 68.04 20.88 68.2 21.52L69.76 28.14C69.8667 28.5533 69.8533 28.88 69.72 29.12C69.6 29.3467 69.3933 29.52 69.1 29.64C68.78 29.7467 68.48 29.7533 68.2 29.66C67.92 29.5667 67.6467 29.3533 67.38 29.02C66.94 28.4067 66.5267 27.9333 66.14 27.6C65.7667 27.2533 65.3467 27.0133 64.88 26.88C64.4267 26.7467 63.84 26.68 63.12 26.68H57.5V24.26ZM83.8703 19.38C86.0703 19.38 87.997 19.8067 89.6503 20.66C91.317 21.5 92.6103 22.6867 93.5303 24.22C94.4503 25.74 94.9103 27.5133 94.9103 29.54C94.9103 31.42 94.4236 33.1133 93.4503 34.62C92.4903 36.1267 91.157 37.3267 89.4503 38.22C87.757 39.1 85.7903 39.54 83.5503 39.54C81.337 39.54 79.4036 39.1133 77.7503 38.26C76.097 37.3933 74.8103 36.2 73.8903 34.68C72.9703 33.16 72.5103 31.4 72.5103 29.4C72.5103 27.48 72.9903 25.7667 73.9503 24.26C74.9236 22.7533 76.257 21.5667 77.9503 20.7C79.657 19.82 81.6303 19.38 83.8703 19.38ZM85.2703 37.04C85.777 36.9333 86.157 36.58 86.4103 35.98C86.677 35.3667 86.797 34.4867 86.7703 33.34C86.7436 32.18 86.5503 30.7133 86.1903 28.94C85.857 27.22 85.477 25.82 85.0503 24.74C84.637 23.66 84.1836 22.88 83.6903 22.4C83.197 21.92 82.6836 21.7467 82.1503 21.88C81.6436 21.9867 81.257 22.3467 80.9903 22.96C80.737 23.56 80.6236 24.4333 80.6503 25.58C80.6903 26.7267 80.8836 28.1933 81.2303 29.98C81.5636 31.6867 81.9436 33.0867 82.3703 34.18C82.797 35.26 83.2503 36.0333 83.7303 36.5C84.2236 36.9667 84.737 37.1467 85.2703 37.04ZM116.367 25.4C116.367 26.4133 116.001 27.2667 115.267 27.96C114.534 28.64 113.547 28.98 112.307 28.98C111.094 28.98 110.181 28.6533 109.567 28C108.954 27.3467 108.647 26.4933 108.647 25.44V24.58C108.647 23.7267 108.474 23.06 108.127 22.58C107.781 22.0867 107.327 21.84 106.767 21.84C106.301 21.84 105.867 22.0267 105.467 22.4C105.081 22.76 104.767 23.3133 104.527 24.06C104.287 24.7933 104.167 25.7267 104.167 26.86C104.167 28.4333 104.421 29.7533 104.927 30.82C105.447 31.8733 106.154 32.6733 107.047 33.22C107.941 33.7533 108.967 34.02 110.127 34.02C111.034 34.02 111.841 33.9 112.547 33.66C113.254 33.4067 113.907 32.9533 114.507 32.3C114.827 32.0067 115.074 31.8067 115.247 31.7C115.421 31.5933 115.594 31.54 115.767 31.54C115.994 31.54 116.161 31.66 116.267 31.9C116.374 32.1267 116.427 32.4067 116.427 32.74C116.387 33.9667 115.974 35.1 115.187 36.14C114.401 37.1667 113.321 37.9933 111.947 38.62C110.574 39.2333 108.981 39.54 107.167 39.54C105.194 39.54 103.421 39.1467 101.847 38.36C100.287 37.5733 99.0472 36.4733 98.1272 35.06C97.2205 33.6333 96.7672 31.9467 96.7672 30C96.7672 27.96 97.2139 26.14 98.1072 24.54C99.0139 22.94 100.287 21.68 101.927 20.76C103.567 19.84 105.494 19.38 107.707 19.38C109.507 19.38 111.054 19.6467 112.347 20.18C113.641 20.7133 114.634 21.44 115.327 22.36C116.021 23.2667 116.367 24.28 116.367 25.4ZM132.869 35.5V34.8L132.629 34.78V25.1C132.629 24.7267 132.575 24.46 132.469 24.3C132.362 24.14 132.209 24.0333 132.009 23.98L131.509 23.86C131.255 23.78 131.069 23.6667 130.949 23.52C130.842 23.3733 130.789 23.18 130.789 22.94C130.789 22.66 130.862 22.44 131.009 22.28C131.169 22.12 131.455 21.96 131.869 21.8L136.829 20.02C137.415 19.7933 137.889 19.6333 138.249 19.54C138.609 19.4333 138.962 19.38 139.309 19.38C139.829 19.38 140.222 19.5267 140.489 19.82C140.769 20.1133 140.909 20.48 140.909 20.92V35.28C140.909 35.76 140.949 36.1067 141.029 36.32C141.109 36.52 141.242 36.66 141.429 36.74L141.929 36.94C142.195 37.0467 142.389 37.1867 142.509 37.36C142.629 37.5333 142.689 37.7333 142.689 37.96C142.689 38.2933 142.582 38.5533 142.369 38.74C142.169 38.9133 141.842 39 141.389 39H135.969C135.155 39 134.435 38.6533 133.809 37.96C133.182 37.2667 132.869 36.4467 132.869 35.5ZM119.929 33.4V25.1C119.929 24.7267 119.875 24.46 119.769 24.3C119.675 24.14 119.522 24.0333 119.309 23.98L118.809 23.86C118.569 23.78 118.389 23.6667 118.269 23.52C118.162 23.3733 118.109 23.18 118.109 22.94C118.109 22.66 118.182 22.44 118.329 22.28C118.489 22.12 118.775 21.96 119.189 21.8L124.129 20.02C124.755 19.78 125.249 19.6133 125.609 19.52C125.969 19.4267 126.289 19.38 126.569 19.38C127.115 19.38 127.522 19.5267 127.789 19.82C128.069 20.1133 128.209 20.48 128.209 20.92V32.28C128.209 33.12 128.395 33.7533 128.769 34.18C129.155 34.5933 129.695 34.8 130.389 34.8C130.829 34.8 131.282 34.7133 131.749 34.54C132.215 34.3667 132.635 34.12 133.009 33.8L133.709 33.18L134.769 34.3L134.129 34.88C132.315 36.5867 130.722 37.7933 129.349 38.5C127.989 39.1933 126.742 39.54 125.609 39.54C123.915 39.54 122.542 38.98 121.489 37.86C120.449 36.74 119.929 35.2533 119.929 33.4ZM154.138 37.32C154.898 37.32 155.458 37.1533 155.818 36.82C156.191 36.4733 156.378 36.06 156.378 35.58C156.378 35.2733 156.318 34.9867 156.198 34.72C156.078 34.4533 155.811 34.2067 155.398 33.98C154.998 33.7533 154.371 33.56 153.518 33.4C151.144 32.96 149.331 32.3933 148.078 31.7C146.838 31.0067 145.991 30.2 145.538 29.28C145.084 28.3467 144.858 27.3 144.858 26.14C144.858 24.02 145.591 22.3667 147.058 21.18C148.538 19.98 150.691 19.38 153.518 19.38C154.504 19.38 155.291 19.46 155.878 19.62C156.478 19.78 156.951 19.94 157.298 20.1C157.658 20.2467 157.964 20.32 158.218 20.32C158.524 20.32 158.791 20.2467 159.018 20.1C159.244 19.94 159.471 19.78 159.698 19.62C159.938 19.46 160.224 19.38 160.558 19.38C160.798 19.38 161.018 19.46 161.218 19.62C161.418 19.78 161.578 20.08 161.698 20.52L162.718 24.52C162.904 25.12 162.958 25.6 162.878 25.96C162.798 26.32 162.578 26.5733 162.218 26.72C161.858 26.8533 161.538 26.86 161.258 26.74C160.991 26.6067 160.731 26.3533 160.478 25.98C159.811 24.9533 159.131 24.12 158.438 23.48C157.744 22.8267 157.031 22.3467 156.298 22.04C155.578 21.7333 154.818 21.58 154.018 21.58C153.138 21.58 152.478 21.7533 152.038 22.1C151.611 22.4333 151.398 22.8867 151.398 23.46C151.398 23.8333 151.491 24.16 151.678 24.44C151.878 24.72 152.258 24.9733 152.818 25.2C153.391 25.4267 154.238 25.6533 155.358 25.88C157.238 26.24 158.724 26.7467 159.818 27.4C160.911 28.04 161.691 28.8267 162.158 29.76C162.638 30.68 162.878 31.76 162.878 33C162.878 34.32 162.524 35.4733 161.818 36.46C161.124 37.4333 160.171 38.1933 158.958 38.74C157.744 39.2733 156.371 39.54 154.838 39.54C153.878 39.54 153.118 39.4533 152.558 39.28C151.998 39.1067 151.538 38.94 151.178 38.78C150.831 38.6067 150.504 38.52 150.198 38.52C149.891 38.52 149.598 38.6067 149.318 38.78C149.038 38.94 148.758 39.1 148.478 39.26C148.211 39.4333 147.931 39.52 147.638 39.52C147.384 39.52 147.164 39.42 146.978 39.22C146.804 39.0333 146.671 38.7067 146.578 38.24L145.958 34.52C145.851 33.92 145.844 33.4733 145.938 33.18C146.031 32.8733 146.238 32.6533 146.558 32.52C146.904 32.3733 147.218 32.38 147.498 32.54C147.778 32.6867 148.058 32.96 148.338 33.36C149.324 34.8 150.298 35.82 151.258 36.42C152.231 37.02 153.191 37.32 154.138 37.32ZM170.722 39.56C169.869 39.56 169.089 39.3467 168.382 38.92C167.675 38.48 167.115 37.9 166.702 37.18C166.289 36.4467 166.082 35.6533 166.082 34.8C166.082 33.9333 166.289 33.1467 166.702 32.44C167.115 31.72 167.675 31.1467 168.382 30.72C169.089 30.2933 169.869 30.08 170.722 30.08C171.615 30.08 172.409 30.2933 173.102 30.72C173.809 31.1467 174.369 31.72 174.782 32.44C175.195 33.1467 175.402 33.9333 175.402 34.8C175.402 35.6533 175.195 36.4467 174.782 37.18C174.369 37.9 173.809 38.48 173.102 38.92C172.409 39.3467 171.615 39.56 170.722 39.56Z" fill="url(#paint1_linear_26_402)"/>
<defs>
<linearGradient id="paint0_linear_26_402" x1="19.4999" y1="12.0002" x2="19.4999" y2="38.0001" gradientUnits="userSpaceOnUse">
<stop stop-color="#3D5CC0"/>
<stop offset="1" stop-color="#5675D9"/>
</linearGradient>
<linearGradient id="paint1_linear_26_402" x1="160.297" y1="-52.2667" x2="64.623" y2="56.7015" gradientUnits="userSpaceOnUse">
<stop stop-color="#7A91DE"/>
<stop offset="1" stop-color="#3D5CC0"/>
</linearGradient>
</defs>
</svg>
