<svg width="71" height="71" viewBox="0 0 71 71" fill="none" xmlns="http://www.w3.org/2000/svg">
<path d="M29.5834 35.6686C29.9899 36.5453 30.6155 37.3023 31.3998 37.8667C34.5357 39.976 38.7128 38.198 40.402 35.148C42.8841 30.672 40.3369 25.1843 35.8906 23.078C29.9739 20.2675 22.9597 23.5335 20.3889 29.249C17.1495 36.4437 21.2468 44.7744 28.406 47.7268C37.0769 51.3005 46.9932 46.4902 50.4101 38.0974C54.4334 28.2077 48.7623 16.9927 38.8844 13.2178C27.48 8.85725 14.6261 15.2295 10.3779 26.2996C5.55581 38.8814 12.8126 52.9956 25.4121 57.5869C39.5471 62.7344 55.3446 54.8031 60.4181 41.0498C61.4099 38.3797 61.9856 35.573 62.1251 32.728" stroke="url(#paint0_linear_26_408)" stroke-width="5" stroke-linecap="round" stroke-linejoin="round"/>
<defs>
<linearGradient id="paint0_linear_26_408" x1="35.5003" y1="11.8336" x2="35.5003" y2="59.1668" gradientUnits="userSpaceOnUse">
<stop stop-color="#3D5CC0"/>
<stop offset="1" stop-color="#5675D9"/>
</linearGradient>
</defs>
</svg>
