<svg width="39" height="39" viewBox="0 0 39 39" fill="none" xmlns="http://www.w3.org/2000/svg">
<path d="M16.2498 19.5926C16.473 20.0742 16.8167 20.49 17.2475 20.8C18.97 21.9586 21.2645 20.982 22.1924 19.3066C23.5558 16.848 22.1566 13.8336 19.7143 12.6766C16.4643 11.1329 12.6114 12.9269 11.1993 16.0664C9.41989 20.0184 11.6705 24.5944 15.603 26.2161C20.3659 28.1791 25.8129 25.5369 27.6898 20.9268C29.8998 15.4944 26.7846 9.334 21.3588 7.2605C15.0944 4.86525 8.03377 8.3655 5.70027 14.4463C3.05152 21.3574 7.03764 29.1102 13.9585 31.6322C21.7228 34.4597 30.4003 30.1031 33.1871 22.5485C33.732 21.0818 34.0482 19.5401 34.1248 17.9774" stroke="url(#paint0_linear_26_401)" stroke-width="2" stroke-linecap="round" stroke-linejoin="round"/>
<defs>
<linearGradient id="paint0_linear_26_401" x1="19.4999" y1="6.50015" x2="19.4999" y2="32.5001" gradientUnits="userSpaceOnUse">
<stop stop-color="#3D5CC0"/>
<stop offset="1" stop-color="#5675D9"/>
</linearGradient>
</defs>
</svg>
